<?xml version="1.0" standalone="no"?>
<!DOCTYPE svg PUBLIC "-//W3C//DTD SVG 1.1//EN" "http://www.w3.org/Graphics/SVG/1.1/DTD/svg11.dtd" >
<svg xmlns="http://www.w3.org/2000/svg">
<metadata>
Created by FontForge 20120731 at Tue Mar 29 21:04:54 2016
 By Ads
</metadata>
<defs>
<font id="dsiconfont" horiz-adv-x="1024" >
  <font-face 
    font-family="dsiconfont"
    font-weight="500"
    font-stretch="normal"
    units-per-em="1024"
    panose-1="2 0 6 3 0 0 0 0 0 0"
    ascent="896"
    descent="-128"
    x-height="792"
    bbox="0 -128 1028 896"
    underline-thickness="50"
    underline-position="-100"
    unicode-range="U+0078-E619"
  />
<missing-glyph horiz-adv-x="374" 
d="M34 0v682h272v-682h-272zM68 34h204v614h-204v-614z" />
    <glyph glyph-name=".notdef" horiz-adv-x="374" 
d="M34 0v682h272v-682h-272zM68 34h204v614h-204v-614z" />
    <glyph glyph-name=".null" horiz-adv-x="0" 
 />
    <glyph glyph-name="nonmarkingreturn" horiz-adv-x="341" 
 />
    <glyph glyph-name="x" unicode="x" horiz-adv-x="1001" 
d="M281 543q-27 -1 -53 -1h-83q-18 0 -36.5 -6t-32.5 -18.5t-23 -32t-9 -45.5v-76h912v41q0 16 -0.5 30t-0.5 18q0 13 -5 29t-17 29.5t-31.5 22.5t-49.5 9h-133v-97h-438v97zM955 310v-52q0 -23 0.5 -52t0.5 -58t-10.5 -47.5t-26 -30t-33 -16t-31.5 -4.5q-14 -1 -29.5 -0.5
t-29.5 0.5h-32l-45 128h-439l-44 -128h-29h-34q-20 0 -45 1q-25 0 -41 9.5t-25.5 23t-13.5 29.5t-4 30v167h911zM163 247q-12 0 -21 -8.5t-9 -21.5t9 -21.5t21 -8.5q13 0 22 8.5t9 21.5t-9 21.5t-22 8.5zM316 123q-8 -26 -14 -48q-5 -19 -10.5 -37t-7.5 -25t-3 -15t1 -14.5
t9.5 -10.5t21.5 -4h37h67h81h80h64h36q23 0 34 12t2 38q-5 13 -9.5 30.5t-9.5 34.5q-5 19 -11 39h-368zM336 498v228q0 11 2.5 23t10 21.5t20.5 15.5t34 6h188q31 0 51.5 -14.5t20.5 -52.5v-227h-327z" />
    <glyph glyph-name="uniE600" unicode="&#xe600;" 
d="M511 563q-74 0 -126.5 -52.5t-52.5 -127t52.5 -127t127 -52.5t127 52.5t52.5 127t-52.5 127t-127.5 52.5zM511 263q-49 0 -84.5 35.5t-35.5 85t35.5 84.5t85 35t85 -35t35.5 -84.5t-35.5 -85t-85.5 -35.5zM892 517h-18l-1 3l-5 -2l4 4q-5 12 -8 20l-2 4l12 12
q36 35 36 85.5t-36 86.5l-16 16q-35 36 -85.5 36t-86.5 -36l-12 -12l-3 1q-10 5 -23 10l-3 1v17q0 51 -36 86.5t-86 35.5h-23q-50 0 -86 -35.5t-36 -86.5v-17l-3 -1q-12 -5 -23 -10l-3 -1l-12 12q-36 36 -86.5 36t-85.5 -36l-17 -16q-35 -36 -35 -86.5t35 -85.5l13 -12
l-2 -4q-4 -8 -8 -21l-2 -4h-18q-50 0 -85.5 -36t-35.5 -86v-23q0 -51 35.5 -86.5t85.5 -35.5h18l2 -5q4 -12 8 -21l2 -3l-13 -12q-35 -36 -35 -86.5t35 -85.5l17 -17q35 -35 85.5 -35t86.5 35l12 13l3 -2q10 -4 23 -9l3 -1v-18q0 -50 36 -85.5t86 -35.5h23q50 0 86 35.5
t36 85.5v18l3 1q12 5 23 9l3 2l12 -13q36 -35 86 -35t86 35l16 17q36 35 36 85.5t-36 86.5l-12 12l2 3q3 8 8 21l-5 2h6l1 3h17q51 0 86.5 35.5t35.5 86.5v23q0 50 -35.5 86t-85.5 36zM951 426v0v0zM806 719v0v0zM72 339v0v0zM176 90v0v0zM467 -55v0v0zM555 -56v0v0z
M954 372q0 -6 -1 -12q0 -1 -1 -4l-1 -2q-1 -4 -2 -6q0 -1 -3 -6v-1q-1 -2 -2 -3q-2 -3 -6 -7q0 -1 -1 -2q-3 -3 -8 -7q-14 -10 -32 -12h-2q-2 -1 -3 -1h-62l-1 -4q-11 -46 -38 -91l-2 -3l44 -44q14 -15 17 -37q1 -5 1 -9q0 -1 -1 -3q0 -5 -1 -9l-1 -2v-3q-1 -4 -2 -6
q-1 -1 -3 -5l-1 -2q-1 -2 -2 -3q-3 -5 -7 -9l-17 -17q-4 -4 -9 -7q-1 -1 -3 -2l-2 -1l3 -4l-4 3q-3 -1 -5 -2t-5 -2l2 -5l-3 5l-2 -1h-3q-3 -1 -8 -2h-5q-3 0 -9 1q-21 3 -35 17l-44 44l-4 -2q-44 -27 -91 -38l-4 -1v-62v-4v-1q-2 -18 -13 -33q-3 -4 -7 -7q0 -1 -1 -2
q-4 -3 -7 -5q-1 -1 -3 -2l-2 -1q-3 -2 -6 -2q-1 -1 -6 -2l-1 -1q-2 -1 -4 -1q-6 -1 -12 -1h-23q-6 0 -12 1q-2 0 -4 1l-2 1l-6 2q-2 0 -6 3h-1q-2 1 -3 2q-3 2 -7 6q-1 1 -2 1q-3 3 -7 8q-10 14 -12 32v2q-1 2 -1 3v62l-4 1q-46 11 -91 38l-3 2l-44 -44q-15 -14 -36 -17
q-5 -1 -8 -1h-5q-5 1 -9 2h-2l-2 1l-1 -5v5q-4 1 -5.5 2t-5.5 3l-2 1q-2 1 -3 1q-5 4 -9 8l-17 17q-4 4 -7 9q-1 1 -2 4l-1 2q-2 3 -3 5t-2 5l-1 3v2q-1 3 -2 10v2q0 4 1 11q3 20 17 35l44 44l-2 4q-27 44 -38 90l-1 4h-62q-1 0 -4 1v-5l-1 5q-18 2 -33 13q-4 3 -7 6l-2 2
q-3 4 -5 7q-1 1 -2 3l-4 -2l4 3l-1 1q-2 4 -3 5q0 2 -2 7v1q-1 2 -1 4q-1 6 -1 12v23q0 6 1 12q0 1 1 4l1 2q1 4 1.5 5.5t3.5 6.5v1q1 2 2 3q1 2 6 7q0 1 1 2q3 3 8 7q14 10 32 12h1q3 1 4 1h62l1 4q11 46 38 90l2 4l-44 44q-14 14 -17 36q-1 5 -1 10v3q1 5 2 8v2v1l1 3
q1 4 2 5q1 2 2 5l1 1l-4 3l5 -1q1 1 2 3q3 5 7 9l17 16q4 5 9 8q1 1 3 2l3 1q3 2 5 3q1 1 5 1l3 1l2 1q4 1 10 1h2l1 1q4 0 10 -1q20 -3 35 -18l44 -44l3 3q45 27 91 38l4 1v61q0 2 1 4v2q2 18 13 32q3 5 6 8q1 0 2 2q5 3 7 5q1 0 3 2h2q4 2 5.5 3t5.5 2l2 1q2 0 4 1
q6 1 12 1h23q6 0 12 -1q1 -1 4 -1l2 -1q4 -1 5.5 -2t6.5 -3l1 -1q2 -1 3 -1q3 -2 7 -6l1 -1q4 -3 8 -8q10 -14 12 -32v-2v-4v-61l4 -1q47 -11 91 -38l4 -3l44 44q15 15 37 18q4 1 8 1l1 -1h3q5 0 8 -1q1 0 5 -1l1 -1q4 -1 5.5 -1.5t5.5 -2.5l2 -1q2 -2 3 -2q5 -3 9 -8
l17 -16q4 -4 7 -9q1 -1 2 -4l1 -2q2 -4 3 -5q1 -2 2 -5l1 -3v-3q1 -3 2 -9v-2q0 -5 -1 -11q-3 -21 -17 -35l-44 -44l2 -4q27 -44 38 -91l1 -4h62h3h2q18 -2 33 -13q4 -3 7 -7q1 0 2 -2q3 -4 5 -7q1 0 2 -3l1 -2q2 -3 2 -5q1 -1 2 -5l1 -2q1 -3 1 -4q1 -6 1 -12v-23zM954 372
z" />
    <glyph glyph-name="uniE601" unicode="&#xe601;" 
d="M725 338q50 44 78.5 106t28.5 132q0 87 -43 160.5t-116.5 116.5t-160.5 43t-160.5 -43t-116.5 -116.5t-43 -160.5q0 -70 28.5 -132t78.5 -106q-135 -62 -217 -187.5t-82 -278.5h128q0 104 51.5 192.5t140 140t192.5 51.5t192.5 -51.5t140 -140t51.5 -192.5h128
q0 153 -82 278.5t-217 187.5zM512 768q80 0 136 -56t56 -136t-56 -136t-136 -56t-136 56t-56 136t56 136t136 56zM512 768z" />
    <glyph glyph-name="uniE602" unicode="&#xe602;" 
d="M320 896h-192q-53 0 -90.5 -37.5t-37.5 -90.5v-192q0 -53 37.5 -90.5t90.5 -37.5h192q53 0 90.5 37.5t37.5 90.5v192q0 53 -37.5 90.5t-90.5 37.5zM896 896h-192q-53 0 -90.5 -37.5t-37.5 -90.5v-192q0 -53 37.5 -90.5t90.5 -37.5h192q53 0 90.5 37.5t37.5 90.5v192
q0 53 -37.5 90.5t-90.5 37.5zM320 320h-192q-53 0 -90.5 -37.5t-37.5 -90.5v-192q0 -53 37.5 -90.5t90.5 -37.5h192q53 0 90.5 37.5t37.5 90.5v192q0 53 -37.5 90.5t-90.5 37.5zM896 320h-192q-53 0 -90.5 -37.5t-37.5 -90.5v-192q0 -53 37.5 -90.5t90.5 -37.5h192
q53 0 90.5 37.5t37.5 90.5v192q0 53 -37.5 90.5t-90.5 37.5zM896 320z" />
    <glyph glyph-name="uniE603" unicode="&#xe603;" 
d="M814 400q40 31 63 77t23 99q0 93 -65.5 159t-158.5 66q-19 0 -33 -14t-14 -33.5t14 -33t33 -13.5q54 0 92.5 -38.5t38.5 -92.5t-38.5 -92.5t-92.5 -38.5q-19 0 -33 -13.5t-14 -32.5q0 -5 1 -9q-1 -4 -1 -9q0 -19 14 -32.5t33 -13.5q105 0 180 -75t75 -180q0 -19 13.5 -33
t33 -14t33 14t13.5 33q0 106 -58 192.5t-152 127.5zM534 392q49 34 77 87.5t28 115.5q0 103 -73 176t-176 73t-176 -73t-73 -176q0 -62 28 -115.5t77 -87.5q-110 -44 -178 -142.5t-68 -220.5q0 -19 13.5 -32.5t33 -13.5t33 13.5t13.5 32.5q0 123 87 210t210 87t210 -87
t87 -210q0 -19 13.5 -32.5t33 -13.5t33 13.5t13.5 32.5q0 122 -68 220.5t-178 142.5zM390 750q64 0 110 -45.5t46 -110t-46 -110t-110 -45.5t-109.5 45.5t-45.5 110t45.5 110t109.5 45.5z" />
    <glyph glyph-name="uniE604" unicode="&#xe604;" horiz-adv-x="1029" 
d="M514 894q-104 0 -199.5 -36t-164 -96.5t-109.5 -144.5t-41 -176q0 -98 45 -186t128 -152v-175q0 -32 27 -47q13 -7 27 -7q15 0 28 8l185 111q38 -5 74 -5q105 0 200 36t164 96.5t109.5 144.5t40.5 176t-40.5 176t-109.5 144.5t-164 96.5t-200 36zM514 95q-37 0 -77 7
q-20 3 -37 -7l-119 -72v107q0 27 -23 44q-71 49 -110.5 119t-39.5 148q0 94 54.5 173.5t148 126t203.5 46.5t203.5 -46.5t148 -126t54.5 -173.5t-54.5 -173.5t-148 -126t-203.5 -46.5zM297 478q-19 0 -32.5 -13.5t-13.5 -32.5t13.5 -32.5t32.5 -13.5t32.5 13.5t13.5 32.5
t-13.5 32.5t-32.5 13.5zM732 478q-19 0 -32.5 -13.5t-13.5 -32.5t13.5 -32.5t32.5 -13.5t32.5 13.5t13.5 32.5t-13.5 32.5t-32.5 13.5zM514 478q-19 0 -32.5 -13.5t-13.5 -32.5t13.5 -32.5t32.5 -13.5t32.5 13.5t13.5 32.5t-13.5 32.5t-32.5 13.5z" />
    <glyph glyph-name="uniE605" unicode="&#xe605;" 
d="M794 235q21 0 36 15t15 37q0 24 -19 40q-61 47 -131 74q46 39 72.5 94.5t26.5 118.5q0 117 -82.5 199.5t-199 82.5t-199 -82.5t-82.5 -199.5q0 -63 26 -118.5t72 -94.5q-146 -56 -237.5 -186t-91.5 -292q0 -21 15 -36t36.5 -15t36.5 15t15 36q0 111 55 205.5t149 149.5
t205 55q137 0 247 -84q15 -14 35 -14zM512 435q-74 0 -126.5 52.5t-52.5 127t52.5 127t126.5 52.5t127 -52.5t53 -127t-53 -127t-127 -52.5zM648 131q0 -22 15 -37t36 -15h273q22 0 37 15t15 36.5t-15 36.5t-37 15h-273q-21 0 -36 -15t-15 -36zM972 -23h-273q-21 0 -36 -15
t-15 -36t15 -36t36 -15h273q22 0 37 15t15 36t-15 36t-37 15zM930 -43z" />
    <glyph glyph-name="uniE606" unicode="&#xe606;" 
d="M279 669q0 91 23 116q10 12 32.5 27.5t40.5 24.5l17 10q3 2 8.5 5t19.5 10t25.5 12t22.5 8t15 1q7 -3 9.5 -26.5t2.5 -45.5v-21q-1 -85 -16 -109q-6 -11 -29 -27.5t-42 -27.5l-20 -12q-8 -4 -19.5 -10.5t-36 -18t-34.5 -10.5q-21 0 -19 94zM326 237q0 -6 21 -20t41 -25
l20 -10q81 -41 111 -41q13 0 40 10.5t47 20.5l20 10q72 35 82 54q2 2 0.5 5.5t-4.5 7.5t-8 8t-10.5 7.5t-12.5 8t-12.5 7.5t-12 6t-10.5 5l-7 3q-3 2 -3 3q-84 44 -120 39q-16 -3 -42 -13.5t-44 -20.5l-17 -9q-2 -1 -4.5 -2.5t-11 -6t-16 -9t-16.5 -10t-15.5 -10.5t-11 -10
t-4.5 -8zM293 302q10 -1 32.5 9t40.5 20l17 11q77 42 91 66q7 11 11 38t4 49l1 22q2 85 -12 93q-6 4 -29 -5t-42 -20l-20 -11q-67 -35 -90 -62q-23 -25 -23 -116v-16q0 -11 1 -31t5.5 -33.5t12.5 -13.5zM810 536q7 -11 30 -27.5t42 -28.5l20 -11q7 -4 19 -11t36.5 -18
t34.5 -11q21 1 18 95q0 90 -22 116q-10 12 -33 27.5t-40 24.5l-17 10l-9 4q-5 3 -19 10.5t-25.5 12.5t-22.5 8t-15 1q-7 -4 -10 -27t-2 -45v-21q1 -85 15 -109zM735 512q-10 12 -33 27.5t-40 25.5l-17 9q-4 2 -9 5t-19 10t-25.5 12t-22.5 8t-15 1q-7 -3 -10 -26.5t-2 -45.5
v-21q1 -85 15 -109q7 -11 30 -27.5t42 -27.5l20 -11q7 -5 19 -11.5t36.5 -18t34.5 -10.5q8 0 12.5 13.5t5.5 33.5t1 30.5t-1 16.5q-2 94 -22 116zM552 681q7 -11 30 -27.5t42 -27.5l20 -12q7 -4 19 -11t36.5 -18t34.5 -10q21 0 18 94q0 91 -22 116q-10 12 -32.5 27.5
t-40.5 24.5l-17 10q-4 2 -9 5t-19 10t-25.5 12t-22.5 8t-15 1q-7 -3 -10 -26.5t-2 -45.5v-21q1 -85 15 -109zM217 263q6 11 10 38t5 49v22q2 85 -12 93q-6 3 -28.5 -6t-43 -19.5t-19.5 -10.5q-67 -35 -90 -62q-23 -26 -23 -116q-2 -94 19 -95q10 0 32.5 10t40.5 20l17 10
q77 43 92 67zM888 167q-87 44 -120 39q-16 -3 -42 -13.5t-44 -20.5l-17 -9q-2 -1 -4.5 -2.5t-11 -6t-16 -8.5t-16.5 -10t-15.5 -11t-11 -9.5t-4.5 -7.5q1 -15 82 -56q9 -4 23.5 -11t44 -18t43 -11t40.5 10t47 21l20 10q72 34 82 53q4 6 -7 16.5t-28.5 20.5t-28.5 16t-16 8z
M40 429q10 0 32.5 10t40.5 20l17 10q77 43 91 67q7 11 11 38t4 49l1 22q2 85 -12 93q-6 3 -28.5 -6t-43 -19.5t-19.5 -10.5q-67 -35 -90 -62q-23 -26 -23 -116q-2 -94 19 -95zM1015 251q1 9 0.5 26t-6 47.5t-16 42.5t-33.5 27.5t-40 24.5l-18 10q-3 2 -8 4.5t-19 10
t-25.5 12.5t-22.5 8t-15 1q-7 -4 -10 -27t-3 -45l1 -21q0 -85 15 -109q7 -11 29.5 -27.5t42.5 -28.5l20 -11q7 -4 19 -11t36.5 -18t34.5 -11q21 1 18 95zM445 99q3 6 -6 15.5t-26.5 20t-27 15.5t-19.5 9q-1 1 -2 1q-87 44 -120 39q-36 -6 -103 -43q-1 -1 -4 -2t-11 -5.5
t-15.5 -9t-17 -10.5t-16 -10.5t-10.5 -9.5t-4 -8q0 -7 20.5 -21t40.5 -24t21 -10q9 -5 23 -12t44 -18t43.5 -11t40.5 10.5t46.5 20t20.5 10.5q71 34 82 53zM625 30q-88 44 -120 39q-17 -2 -42.5 -13t-43.5 -20l-18 -9q-1 -1 -4 -2.5t-11 -6t-15.5 -9t-16.5 -10t-15.5 -10.5
t-11 -10t-4.5 -8q0 -7 20.5 -20.5t41 -24.5t20.5 -10q80 -41 110 -41q14 0 40.5 10.5t47.5 20.5l20 10q71 34 82 53q3 7 -6.5 17t-30.5 21.5t-26.5 14.5t-16.5 8zM625 30z" />
    <glyph glyph-name="uniE607" unicode="&#xe607;" 
d="M958 844q-23 0 -40 -13.5t-22 -35.5h-317q-5 22 -22.5 35.5t-39.5 13.5t-39.5 -13.5t-22.5 -35.5h-327q-5 22 -22 35.5t-40 13.5q-26 0 -44.5 -18.5t-18.5 -45t18.5 -45t44.5 -18.5q9 0 18 2l99 -170q-26 -19 -26 -51q0 -26 19 -45t45 -19q13 0 25 5l229 -397
q-27 -19 -27 -51q0 -27 19 -45.5t45 -18.5t45 18.5t19 45.5q0 32 -27 51l147 255q12 -4 24 -4q26 0 44.5 18.5t18.5 44.5q0 31 -24 50l181 313q9 -2 18 -2q26 0 44.5 18.5t18.5 45t-18.5 45t-44.5 18.5zM478 249l13 -174l-210 363l149 -103q-5 -11 -5 -23q0 -23 15.5 -41
t37.5 -22zM508 251q19 6 31.5 22t13.5 36l108 22q4 -9 11 -16l-150 -259zM656 361l-109 -22q-8 16 -23.5 26.5t-34.5 10.5q-24 0 -42 -16l-167 115q4 10 5 22l213 47q9 -17 25.5 -26.5t36.5 -8.5q10 1 20 5l88 -121q-11 -14 -12 -32zM514 717l16 -86q-15 -7 -25 -20
l-365 154h315q5 -20 21 -33.5t38 -14.5zM559 636l-16 86q29 13 36 43h317l-292 -151q-18 21 -45 22zM110 734q4 4 7 8l376 -159q-1 -3 -1 -6v-3l-214 -48q-8 16 -23.5 26t-33.5 10q-5 0 -11 -1zM732 419q-6 1 -12 1q-16 0 -29 -7l-87 119q14 16 15 36q1 10 -1 20l292 151
q2 -3 4 -5z" />
    <glyph glyph-name="uniE608" unicode="&#xe608;" 
d="M254 896h770v-130h-770v130zM0 896h130v-130h-130v130zM254 598h770v-130h-770v130zM0 598h130v-130h-130v130zM254 300h770v-130h-770v130zM0 300h130v-130h-130v130zM254 2h770v-130h-770v130zM0 2h130v-130h-130v130z" />
    <glyph glyph-name="uniE609" unicode="&#xe609;" 
d="M0 896h130v-1024h-130v1024zM298 653h130v-781h-130v781zM596 778h130v-906h-130v906zM894 528h130v-656h-130v656z" />
    <glyph glyph-name="uniE60A" unicode="&#xe60a;" 
d="M1023 779q0 48 -34.5 82.5t-83 34.5t-82.5 -34.5t-34 -82.5q0 -61 49 -96l-82 -245l-32 -91q-8 1 -17 1q-35 0 -66 -17l-194 205q11 24 11 50q0 48 -34 82.5t-83 34.5t-83 -34.5t-34 -82.5q0 -53 39 -88l-116 -343h-5q-58 0 -99.5 -41.5t-41.5 -100t41.5 -100t100 -41.5
t100 41.5t41.5 99.5q0 36 -16.5 66.5t-44.5 50.5l114 338h4q26 0 50 12l193 -205q-18 -32 -18 -69q0 -58 41 -99.5t100 -41.5t100 41.5t41 99.5q0 66 -49 108l117 348q45 3 76 37t31 80z" />
    <glyph glyph-name="uniE60B" unicode="&#xe60b;" 
d="M866 185q-41 0 -76.5 -20.5t-55.5 -54.5l-451 119q-1 37 -20 68t-50 50l78 305q34 4 61 25.5t38 54.5h354q9 -24 29 -41l-64 -220q-48 -11 -67 -57h-83q-5 9 -13 18l19 72q21 7 34 25t13 40q0 28 -20 48t-48 20t-48 -20t-20 -48q0 -22 13 -40l-20 -76q-26 -6 -43 -27.5
t-17 -49.5q0 -32 23.5 -55.5t56.5 -23.5q43 0 66 36h91q13 -22 35.5 -36t48.5 -14q40 0 68 28t28 67q0 47 -38 76l62 216q37 5 62 33t25 66q0 41 -29.5 70.5t-70.5 29.5q-30 0 -54.5 -16t-36.5 -42h-354q-12 38 -44.5 61.5t-72.5 23.5q-51 0 -87 -36t-36 -87q0 -33 16.5 -61
t44.5 -44l-78 -302q-56 -3 -95.5 -44t-39.5 -98q0 -59 41.5 -100t100.5 -41q38 0 70 18.5t51 50.5l449 -119v-1v-1q0 -63 45.5 -108t109 -45t108.5 45t45 108.5t-45 108.5t-109 45z" />
    <glyph glyph-name="uniE60C" unicode="&#xe60c;" 
d="M743 291v155h-281v69h117l-289 381l-290 -381h117v-643h907v419h-281zM132 581l158 207l157 -207h-49v-643h-217v643h-49zM679 380v-442h-217v442h217zM960 -62h-217v287h217v-287z" />
    <glyph glyph-name="uniE60D" unicode="&#xe60d;" 
d="M995 204q-2 126 -53 182l-4 4q-30 89 -79 135t-113 46q-31 0 -60.5 -11.5t-59 -36.5t-47 -43.5t-47.5 -52.5q-24 -27 -37 -40q-27 132 -57 190q-25 47 -60 72q-40 29 -93 29q-76 0 -131 -60q-44 -49 -74 -137q-39 -116 -48 -275q-32 -18 -32 -54q0 -26 18 -44t44 -18
t44 18t18 44q0 33 -27 51q6 68 20 126q22 26 55 32q17 3 31 3q19 0 36.5 -5.5t27 -11.5t27.5 -18q19 -12 30 -18.5t32.5 -13.5t44.5 -7t47 12q9 -35 18 -60.5t23.5 -50.5t37 -38.5t51.5 -13.5q54 0 97 42q25 23 61 82q16 26 25 38.5t24 29.5t31 24t35 7q26 0 43 -19
q14 -15 23 -42q6 -24 11 -53q3 -20 3 -42q-31 -18 -31 -54q0 -26 18 -44t44 -18t44 18t18 44q0 34 -29 52zM412 466q-34 44 -72.5 70.5t-90.5 26.5q-39 0 -72 -23q45 74 108 74q58 0 92 -59q19 -33 35 -89zM173 467q33 46 76 46q47 0 88 -38q25 -23 68 -86q23 -34 35 -49v-2
q-21 -12 -39 -12t-34.5 5t-26 10.5t-26.5 17.5q-19 13 -30.5 20t-34 14t-46.5 7q-18 0 -38 -4q-17 -3 -32 -10q18 51 40 81zM646 359q18 22 28.5 33t28 25.5t37.5 20.5t45 6q34 0 60 -18q-56 -2 -99 -44q-26 -24 -64 -86q-16 -25 -24.5 -37t-22 -27.5t-27.5 -22t-30 -6.5
q-35 0 -59 81q7 -1 13 -1q25 0 47.5 12.5t34.5 25.5t32 38zM785 494q-61 0 -110 -35q-28 -20 -67 -68q-17 -21 -25.5 -30.5t-22.5 -18.5t-27.5 -9t-28.5 11v1q19 18 55 59q28 32 44 48.5t42 39.5t51 33t50 10q62 0 106 -56q-31 15 -67 15z" />
    <glyph glyph-name="uniE60E" unicode="&#xe60e;" 
d="M70 401v-15v15zM488 -69h15h-15zM521 837h15h-15zM512 896q-104 0 -198.5 -40.5t-163 -109t-109 -163.5t-40.5 -199t40.5 -199t109 -163.5t163 -109t198.5 -40.5t198.5 40.5t163 109t109 163.5t40.5 199t-40.5 199t-109 163.5t-163 109t-198.5 40.5zM932 317
q-22 -138 -122 -236q-107 -106 -256 -121v90q112 14 193 94q74 72 94 173h-44q-20 -83 -81 -143q-68 -67 -162 -80v111h-51v-274h-15h-36v31q-138 20 -238 119q-107 105 -124 254h90q16 -112 97 -191q74 -73 175 -92v45q-83 17 -144 77q-69 67 -84 161h119v51h-273v0v15v36
h21q18 143 119 246q108 110 260 125v-90q-116 -14 -198 -98q-75 -77 -92 -183h44q17 92 85 158t161 80v-112h51v274h15h36v-31q141 -21 242 -123q108 -110 121 -264h-89q-12 117 -94 201q-75 77 -180 96v-45q91 -19 155 -88.5t76 -163.5h-122v-51h273v-51h-22zM70 386h273
h-273z" />
    <glyph glyph-name="uniE60F" unicode="&#xe60f;" 
d="M0 89l353 -116l-75 363zM115 113l126 113l34 -166zM909 399h-231l-115 -199l115 -200h231l115 200zM712 59l-81 141l81 141h163l81 -141l-81 -141h-163zM449 795l-291 -290l291 -291l291 291zM657 505l-208 -209l-208 209l208 208z" />
    <glyph glyph-name="uniE610" unicode="&#xe610;" 
d="M954 258v532q15 7 24 20.5t9 30.5q0 23 -16 39t-39 16q-18 0 -32.5 -10.5t-20.5 -27.5h-529q-5 17 -19.5 27.5t-32.5 10.5q-23 0 -39 -16t-16 -39q0 -13 6 -25l-113 -161q-10 3 -21 3q-32 0 -55 -23t-23 -56q0 -22 12 -41t32 -29v-488q-20 -10 -32 -29t-12 -42
q0 -32 23 -55t55 -23q23 0 42 12t29 32h488q10 -20 29 -32t41 -12q33 0 56 23t23 55.5t-23 55.5t-56 23q-22 0 -41 -12t-29 -32h-488q-3 4 -5 8l111 159h6q17 0 30.5 9t20.5 24h532q7 -15 20.5 -24t30.5 -9q23 0 39 16t16 39q0 16 -9 30t-24 21zM769 654q-12 4 -25 4
q-22 0 -41 -12t-29 -32h-349v179q14 7 21 21h535zM744 501q33 0 56 23t23 55q0 23 -13 42l100 143v-506q-20 -9 -29 -29h-532q-8 17 -24 26v290h349q10 -20 29 -32t41 -12zM249 182l-99 -141v468q24 12 36 36h95v-286q-17 -5 -27.5 -19.5t-10.5 -32.5q0 -13 6 -25zM281 771
v-157h-95q-3 6 -7 11z" />
    <glyph glyph-name="uniE611" unicode="&#xe611;" 
d="M891 303q-9 20 -43 66v1q-36 48 -57 81q61 73 64 184q1 38 -16 79t-49 75q-101 105 -299 107q-73 0 -137 -10.5t-101.5 -24t-68 -31t-39 -25.5t-13.5 -13l-6 -6l41 -36l6 -7l6 7q20 21 68 42q94 41 233 41h11q171 -2 253 -88q50 -52 48 -108q-3 -105 -66 -163
q-61 -56 -176 -56q-15 0 -30 1q-50 3 -88 19q-25 9 -44 24q65 1 126 21q53 17 87 51t42 79q7 37 -5.5 71.5t-41.5 57.5q-37 30 -90 30q-39 0 -80 -17q-73 -30 -114 -92q-38 -60 -32 -126q-66 17 -108 43l-7 4l-34 -53l8 -5q8 -5 22 -12.5t56 -23t84 -22.5q26 -48 81 -77
q56 -30 134 -34q17 -2 34 -2q118 0 194 53q20 -31 53 -76h1q20 -28 27 -39q11 -17 9 -21q-6 -10 -53 -14q-32 -2 -46 -7q-40 -13 -42 -67q-1 -29 13 -89q12 -53 -2 -72q-8 -13 -32 -16q-17 -3 -35 -3q-30 0 -84 10h-1q-44 8 -64 8q-22 0 -40 -7q-41 -15 -63 -69
q-12 -28 -16 -57l-1 -9l63 -8l1 9q3 20 13 45t25 31q7 2 18 2q15 0 53 -7q60 -11 97 -11q22 0 43 3q51 8 75 43q29 41 11 122q-15 67 -11 83q7 2 29 3h1q24 2 38.5 4.5t34 13t30.5 28.5q16 29 2 62zM495 543q-56 -18 -115 -18q-17 0 -34 2q-1 3 -2 7q-8 49 21.5 94.5
t84.5 68.5q29 12 56 12q30 0 51 -16q32 -26 24 -69q-5 -27 -27.5 -48t-58.5 -33z" />
    <glyph glyph-name="uniE612" unicode="&#xe612;" 
d="M859 506l-228 -220l-183 137l-274 -292l271 178l180 -133l317 256l78 -73v229h-231zM858 75h64v-63h-64v63zM518 -38h128v-64h-128v64zM871 243v93v2l-64 -53v-32l-56 -78l-105 -40l-66 -37l-50 34q-8 6 -18 6h-106v69q0 12 -8.5 21t-20.5 11l-92 -64h57v-69q0 -14 9 -23
t23 -9h128l58 -40q17 -11 34 -1l79 45l109 41q9 3 15 11l68 94q6 9 6 19zM1011 757l-124 105q-14 13 -32 5l-96 -39l-78 -49q-17 -11 -14 -30l9 -94l-89 -61l-105 -13l-84 46l-53 102q-6 11 -18 15.5t-24 -1.5l-114 -55q-17 -9 -17 -29v-42l-38 -37h-43q-13 0 -23 -9
l-57 -55q-10 -10 -10 -23.5t10 -22.5l50 -49l29 -137q3 -11 12 -18l78 -63l46 45l-76 61l-28 135q-2 10 -9 17l-34 32l30 23h38q13 0 22 9l57 56q9 9 9 23l-5 10l73 58l42 -83q5 -9 13 -14l102 -55q9 -5 19 -3l123 14q8 1 15 6l111 76q16 11 14 30l-10 93l56 35l73 30
l98 -84v-62h64v77q0 15 -12 25z" />
    <glyph glyph-name="uniE613" unicode="&#xe613;" 
d="M1024 191l-295 251v-136h-110v202h122l-230 319l-229 -319h121v-202h-108v136l-295 -251l295 -250v136h434v-136zM619 138v107h170v66l141 -120l-141 -119v66h-170zM235 138v-66l-141 119l141 120v-66h168v-107h-168zM400 569l111 154l111 -154h-64v-263h-94v263h-64z
M558 245v-104h-94v104h94z" />
    <glyph glyph-name="uniE614" unicode="&#xe614;" 
d="M148.5 535q-61.5 0 -105 -43.5t-43.5 -105.5t43.5 -105.5t105 -43.5t105.5 43.5t44 105.5t-44 105.5t-105.5 43.5zM149 280q-44 0 -75.5 31t-31.5 75t31.5 75t75.5 31t75 -31t31 -75t-31 -75t-75 -31zM510 386zM361 386q0 62 43.5 105.5t105.5 43.5t105.5 -43.5
t43.5 -105.5t-43.5 -105.5t-105.5 -43.5t-105.5 43.5t-43.5 105.5zM871.5 535q-61.5 0 -105.5 -43.5t-44 -105.5t44 -105.5t105.5 -43.5t105 43.5t43.5 105.5t-43.5 105.5t-105 43.5zM871 280q-44 0 -75 31t-31 75t31 75t75 31t75.5 -31t31.5 -75t-31.5 -75t-75.5 -31z" />
    <glyph glyph-name="uniE615" unicode="&#xe615;" 
d="M70 401v-15v15zM488 -69h15h-15zM521 837h15h-15zM512 896q-104 0 -198.5 -40.5t-163 -109t-109 -163.5t-40.5 -199t40.5 -199t109 -163.5t163 -109t198.5 -40.5t198.5 40.5t163 109t109 163.5t40.5 199t-40.5 199t-109 163.5t-163 109t-198.5 40.5zM932 317
q-22 -138 -122 -236q-107 -106 -256 -121v90q112 14 193 94q74 72 94 173h-44q-20 -83 -81 -143q-68 -67 -162 -80v111h-51v-274h-15h-36v31q-138 20 -238 119q-107 105 -124 254h90q16 -112 97 -191q74 -73 175 -92v45q-83 17 -144 77q-69 67 -84 161h119v51h-273v0v15v36
h21q18 143 119 246q108 110 260 125v-90q-116 -14 -198 -98q-75 -77 -92 -183h44q17 92 85 158t161 80v-112h51v274h15h36v-31q141 -21 242 -123q108 -110 121 -264h-89q-12 117 -94 201q-75 77 -180 96v-45q91 -19 155 -88.5t76 -163.5h-122v-51h273v-51h-22zM70 386h273
h-273z" />
    <glyph glyph-name="uniE616" unicode="&#xe616;" 
d="M891 303q-9 20 -43 66v1q-36 48 -57 81q61 73 64 184q1 38 -16 79t-49 75q-101 105 -299 107q-73 0 -137 -10.5t-101.5 -24t-68 -31t-39 -25.5t-13.5 -13l-6 -6l41 -36l6 -7l6 7q20 21 68 42q94 41 233 41h11q171 -2 253 -88q50 -52 48 -108q-3 -105 -66 -163
q-61 -56 -176 -56q-15 0 -30 1q-50 3 -88 19q-25 9 -44 24q65 1 126 21q53 17 87 51t42 79q7 37 -5.5 71.5t-41.5 57.5q-37 30 -90 30q-39 0 -80 -17q-73 -30 -114 -92q-38 -60 -32 -126q-66 17 -108 43l-7 4l-34 -53l8 -5q8 -5 22 -12.5t56 -23t84 -22.5q26 -48 81 -77
q56 -30 134 -34q17 -2 34 -2q118 0 194 53q20 -31 53 -76h1q20 -28 27 -39q11 -17 9 -21q-6 -10 -53 -14q-32 -2 -46 -7q-40 -13 -42 -67q-1 -29 13 -89q12 -53 -2 -72q-8 -13 -32 -16q-17 -3 -35 -3q-30 0 -84 10h-1q-44 8 -64 8q-22 0 -40 -7q-41 -15 -63 -69
q-12 -28 -16 -57l-1 -9l63 -8l1 9q3 20 13 45t25 31q7 2 18 2q15 0 53 -7q60 -11 97 -11q22 0 43 3q51 8 75 43q29 41 11 122q-15 67 -11 83q7 2 29 3h1q24 2 38.5 4.5t34 13t30.5 28.5q16 29 2 62zM495 543q-56 -18 -115 -18q-17 0 -34 2q-1 3 -2 7q-8 49 21.5 94.5
t84.5 68.5q29 12 56 12q30 0 51 -16q32 -26 24 -69q-5 -27 -27.5 -48t-58.5 -33z" />
    <glyph glyph-name="uniE617" unicode="&#xe617;" 
d="M859 506l-228 -220l-183 137l-274 -292l271 178l180 -133l317 256l78 -73v229h-231zM858 75h64v-63h-64v63zM518 -38h128v-64h-128v64zM871 243v93v2l-64 -53v-32l-56 -78l-105 -40l-66 -37l-50 34q-8 6 -18 6h-106v69q0 12 -8.5 21t-20.5 11l-92 -64h57v-69q0 -14 9 -23
t23 -9h128l58 -40q17 -11 34 -1l79 45l109 41q9 3 15 11l68 94q6 9 6 19zM1011 757l-124 105q-14 13 -32 5l-96 -39l-78 -49q-17 -11 -14 -30l9 -94l-89 -61l-105 -13l-84 46l-53 102q-6 11 -18 15.5t-24 -1.5l-114 -55q-17 -9 -17 -29v-42l-38 -37h-43q-13 0 -23 -9
l-57 -55q-10 -10 -10 -23.5t10 -22.5l50 -49l29 -137q3 -11 12 -18l78 -63l46 45l-76 61l-28 135q-2 10 -9 17l-34 32l30 23h38q13 0 22 9l57 56q9 9 9 23l-5 10l73 58l42 -83q5 -9 13 -14l102 -55q9 -5 19 -3l123 14q8 1 15 6l111 76q16 11 14 30l-10 93l56 35l73 30
l98 -84v-62h64v77q0 15 -12 25z" />
    <glyph glyph-name="uniE618" unicode="&#xe618;" 
d="M419 446q109 2 206.5 16t155 31t106 38.5t61.5 29.5t19 13q-13 -2 -37.5 -6t-99 -11.5t-148.5 -10t-177.5 3.5t-195.5 24q-170 34 -29 73q73 -8 163 -8q115 0 216.5 13t164.5 32t109.5 38t65.5 32l20 13q-14 -2 -38 -6t-98.5 -11.5t-149 -10t-178 3.5t-195.5 24
q-192 38 12 83q125 27 317 46q-27 0 -75 -2t-178.5 -18t-239.5 -44q-71 -19 -106.5 -44t-33 -49.5t43.5 -47t116 -35.5q-37 -8 -72 -17q-128 -34 -138 -83q-8 -40 70 -70q94 -36 275 -40h-1q-80 -34 -87 -82q-6 -50 65 -82q66 -29 176 -29q72 0 135.5 13.5t102.5 31.5
t69 38.5t41 31.5t12 13q-8 -2 -23 -6t-62 -11.5t-93.5 -10t-111 3.5t-121.5 24q-96 30 -34 65zM542 168q-94 30 39 65q46 12 96 20q-11 0 -30.5 -1.5t-73.5 -12t-99 -29.5q-60 -25 -56.5 -61.5t68.5 -54.5q38 -10 90 -10q47 0 89 8.5t68 20.5t45 25t27 21t8 9
q-6 -2 -16 -4.5t-40.5 -7.5t-61 -6.5t-73 2.5t-80.5 16zM494 7q-62 20 37 43q25 6 47 10q-63 0 -125 -26q-43 -18 -35 -44q10 -30 79 -34q9 -1 18 -1q30 0 56 5.5t42 13t27.5 15.5t16.5 13l5 5q-3 -1 -9 -2.5t-25 -4.5t-38 -4t-45.5 1.5t-50.5 9.5zM409 -98q-36 11 24 25
l24 4q-36 0 -71 -15q-29 -11 -18 -28q11 -16 53 -16q26 0 47 7.5t28 14.5l8 8q-47 -15 -95 0z" />
    <glyph glyph-name="uniE619" unicode="&#xe619;" 
d="M1000 400v8q0 4 -1 8v7q-2 32 -8 61q-6 30 -15 58t-22 55q-12 26 -27 51q-15 24 -33 47q-17 22 -37 42q-19 19 -40 36q-20 17 -43 31q-42 28 -89 46q-43 17 -89 26q-20 4 -43 6q-2 0 -5 0.5t-6 0.5h-4h-3l-2 1h-11h-9l-3 1h-1h-1h-5q-5 0 -10 -0.5t-9 -0.5h-6h-4
q-19 -1 -35 -3q-31 -4 -62 -12q-3 -1 -7 -2h-1t-2 -1q-2 0 -3 -1q-9 -2 -13 -3q-2 -1 -6 -2t-5 -2q-2 -1 -3 -1h-1q-43 37 -99 37q-63 0 -107 -44.5t-44 -107t44 -106.5t106.5 -44t107 44t44.5 107q0 24 -8 47q4 1 6 2q1 0 2.5 0.5t2.5 0.5q4 1 6 2q26 7 52 12q13 2 30 3
q2 0 4 1h4h9q4 0 8 1h4h1h3h9h8h3h2q2 -1 4 -1h4h5q19 -2 37 -4q40 -7 77 -20l6 -2q35 -16 67 -38q21 -14 38 -28q19 -16 35 -33q34 -36 61 -79q13 -22 24 -45q10 -23 19 -49q16 -51 20 -105v-6l1 -7v-7v-7v-6v-2v-1v-1v-3v-7l-1 -7v-7l-1 -7v-4v-2q0 -1 -0.5 -3.5
t-0.5 -3.5l-1 -5q0 -6 -1 -9l-1 -6l-1 -7q-5 -27 -13 -54q-1 -1 -2 -6q0 -1 -1 -3.5t-1 -3.5l-2 -5q-2 -5 -3 -8l-3 -6l-2 -7l-2 -3l-1 -3l-3 -6q-12 -27 -26 -49l-4 -6l-6 -9l-2 -3l-3 -5l-7 -9l-6 -8l-4 -5q-2 -3 -5 -6l-4 -5l-4 -4l-6 -6q-7 -9 -19 -20q-22 -21 -43 -36
q-21 -16 -46 -30q-22 -13 -50 -24q-51 -20 -105 -28q-11 -1 -13 -1q-6 -1 -7 -1h-6q-1 -1 -14 -1l-7 -1h-6h-7h-7q-12 1 -13 1h-6h-7q-2 1 -13 2q-52 5 -101 22l-6 2q-3 1 -6 3q-2 0 -12 4q-1 1 -5 3q-2 0 -4 1l-2 1q-9 4 -12 6q-21 10 -43 23q-40 25 -74 59q-33 31 -58 68
q-4 5 -7 11q-21 32 -35 67q-8 18 -14 37q0 1 -1 4t-2 5q-1 5 -2 9q-4 13 -5 18q-4 18 -6 35q0 1 -0.5 2t-0.5 2q0 2 -1 4l-1 8q-1 15 -1 16q-1 12 -2 31v14v2v2v1v2q1 1 1 3v3v7v4v2q1 6 1 12q0 1 0.5 5t1.5 6v6q0 1 0.5 2.5t0.5 2.5q2 15 3 18q3 13 3 16q1 2 1.5 6t1.5 6
q0 1 1 4t1 5l2 7q-1 -3 -2 -7q-2 -8 -3 -9q-2 -11 -3 -12q0 -3 -3 -15q-1 -4 -4 -19v-2q-1 -2 -1 -3q0 -3 -1 -6q0 -1 -0.5 -5t-0.5 -6q0 -1 -0.5 -5.5t-1.5 -6.5v-2v-4q0 -1 -0.5 -3.5t-0.5 -3.5v-3v-3v-2v-2q0 -1 -1 -3v-9v1v1v2v1v4v3v6v4v3q0 6 1 11v12q1 2 1 5v3v2
q2 15 2 19q2 13 3 15q1 11 2 13q0 1 0.5 3t0.5 3t1 2l1 8q-1 -3 -2 -7q-1 -1 -2 -4t-1 -5q-1 -1 -4 -12q-1 -2 -5 -15q-1 -3 -4 -19l-1 -2q0 -2 -0.5 -3t-0.5 -3v-2l-1 -4q-1 -5 -2 -7q0 -4 -1 -12q0 -1 -0.5 -3.5t-0.5 -3.5l-1 -6q0 -2 -1 -4v-3v-1v-3v-3q0 -1 -0.5 -3.5
t-0.5 -3.5v-2v-1v-2v-1v-1q-1 -19 -1 -31q0 -2 1 -17v-2v-4v-3v-1v-3q1 -2 1 -4v-4q0 -3 1 -5q0 -1 0.5 -4t0.5 -5v-5l1 -4q0 -2 1 -5v-3v-1q1 -7 4 -19l2 -10q1 -2 1.5 -5.5t1.5 -4.5q5 -19 12 -39q15 -42 38 -82q25 -42 58 -79q17 -18 37 -36t42 -33q47 -33 99 -54
q2 -1 13 -5l14 -5q16 -5 28 -8q30 -8 58 -12q12 -2 15 -2q4 0 8 -1h7q4 -1 16 -1q2 0 7 -1h7h8h8q13 1 15 1h8q4 0 8 1q3 0 15 1q30 3 62 11q30 7 60 19q61 23 112 61q26 18 50 41q14 13 23 23q1 1 11 12l5 6l2 3l3 3q41 50 67 110q14 31 23 60q9 32 14 62l1 8l1 8q0 1 2 16
v5q1 2 1 3v3v5v3q1 6 1 7q1 14 1 16q0 4 1 8v7v4v1v1v2v8v7zM236.5 662q-33.5 0 -57 23.5t-23.5 57t23.5 57.5t57 24t57.5 -24t24 -57.5t-24 -57t-57.5 -23.5zM342 309q25 0 42.5 17.5t17.5 42t-17.5 42t-42.5 17.5t-42.5 -17.5t-17.5 -42t17.5 -42t42.5 -17.5zM432 267
q-25 -9 -25 -35q0 -15 11 -26t26 -11q16 0 26 8q43 27 67 71t24 94.5t-24 94t-67 71.5q-10 8 -26 8q-15 0 -26 -11t-11 -26q0 -26 25 -35q26 -17 40.5 -44t14.5 -57.5t-14.5 -57.5t-40.5 -44zM635 380q0 -56 -23 -106.5t-66 -87.5q-25 -12 -25 -39q0 -18 12.5 -30.5
t30.5 -12.5q17 0 28 6h1l1 1q60 48 93 117t33 146q0 78 -33.5 147t-94.5 118h-1l-1 1q-11 4 -26 4q-18 0 -30.5 -12.5t-12.5 -30.5q0 -19 40 -40q74 -76 74 -181z" />
  </font>
</defs>
</svg>
